<svg width="203" height="100" viewBox="0 0 203 100" fill="none" xmlns="http://www.w3.org/2000/svg">
<mask id="mask0_3236_12714" style="mask-type:alpha" maskUnits="userSpaceOnUse" x="0" y="0" width="203" height="100">
<rect width="203" height="100" rx="13" fill="#D9D9D9"/>
</mask>
<g mask="url(#mask0_3236_12714)">
<path d="M99.2806 209.201L-59.3144 52.9029L96.9837 -105.692L255.579 50.606L99.2806 209.201Z" fill="#0E0E0E"/>
<path d="M96.8366 -105.837L-59.4616 52.7579L255.579 50.606L96.8366 -105.837Z" fill="#D7FC36"/>
<path d="M176.134 -27.6881C165.852 -17.2552 157.726 -4.89945 152.22 8.67386C146.713 22.2472 143.934 36.7722 144.041 51.4196C144.147 66.067 147.138 80.5499 152.842 94.0414C158.546 107.533 166.852 119.769 177.285 130.051L255.579 50.606L176.134 -27.6881Z" fill="#F2F3ED"/>
<path d="M87.252 51.8338C87.3926 71.1195 83.7333 90.2441 76.483 108.116C69.2326 125.987 58.5332 142.256 44.9956 155.992L-59.6065 52.905L87.252 51.8338Z" fill="#5835FE"/>
<path d="M43.4806 -51.6971C71.2228 -24.3567 86.9679 12.8845 87.252 51.8338L-59.6065 52.905L43.4806 -51.6971Z" fill="#0E0E0E"/>
</g>
</svg>
