<svg width="203" height="100" viewBox="0 0 203 100" fill="none" xmlns="http://www.w3.org/2000/svg">
<mask id="mask0_3236_12620" style="mask-type:alpha" maskUnits="userSpaceOnUse" x="0" y="0" width="203" height="100">
<rect width="203" height="100" rx="13" fill="#D9D9D9"/>
</mask>
<g mask="url(#mask0_3236_12620)">
<path d="M0 -54.8119H202.812V148H0V-54.8119Z" fill="#0E0E0E"/>
<path d="M203 148V-54.8119L0 148H203Z" fill="#D7FC36"/>
<path d="M101.594 148C101.594 134.658 98.9663 121.448 93.8607 109.122C88.7551 96.7957 81.2717 85.596 71.8379 76.1621C62.404 66.7283 51.2043 59.2449 38.8784 54.1393C26.5524 49.0337 13.3415 46.4059 0 46.4059V148H101.594Z" fill="#F2F3ED"/>
<path d="M108.413 39.5865C95.9922 27.1652 86.1391 12.419 79.4168 -3.81015C72.6944 -20.0393 69.2345 -37.4337 69.2345 -55L203 -55L108.413 39.5865Z" fill="#5835FE"/>
<path d="M203 78.7655C167.523 78.7655 133.499 64.6724 108.413 39.5865L203 -55V78.7655Z" fill="#0E0E0E"/>
</g>
</svg>
