<svg width="203" height="100" viewBox="0 0 203 100" fill="none" xmlns="http://www.w3.org/2000/svg">
<mask id="mask0_3236_12735" style="mask-type:alpha" maskUnits="userSpaceOnUse" x="0" y="0" width="203" height="100">
<rect width="203" height="100" rx="13" fill="#D9D9D9"/>
</mask>
<g mask="url(#mask0_3236_12735)">
<path d="M-13.2451 163.193L-13.2451 -59.4761L209.424 -59.4761L209.424 163.193L-13.2451 163.193Z" fill="#0E0E0E"/>
<path d="M209.424 -59.6827L-13.2451 -59.6827L209.424 163.193L209.424 -59.6827Z" fill="#D7FC36"/>
<path d="M209.424 51.6518C194.776 51.6518 180.272 54.5369 166.739 60.1424C153.206 65.7478 140.91 73.9639 130.552 84.3214C120.195 94.679 111.979 106.975 106.373 120.508C100.768 134.041 97.8828 148.545 97.8828 163.193L209.424 163.193L209.424 51.6518Z" fill="#F2F3ED"/>
<path d="M90.3958 44.1647C76.7583 57.8021 60.5683 68.6199 42.7502 76.0005C24.932 83.381 5.83459 87.1797 -13.4517 87.1797L-13.4516 -59.6827L90.3958 44.1647Z" fill="#5835FE"/>
<path d="M133.411 -59.6827C133.411 -20.7324 117.938 16.6227 90.3958 44.1647L-13.4516 -59.6827L133.411 -59.6827Z" fill="#0E0E0E"/>
</g>
</svg>
