<svg width="203" height="100" viewBox="0 0 203 100" fill="none" xmlns="http://www.w3.org/2000/svg">
<mask id="mask0_3236_12642" style="mask-type:alpha" maskUnits="userSpaceOnUse" x="0" y="0" width="203" height="100">
<rect width="203" height="100" rx="13" fill="#D9D9D9"/>
</mask>
<g mask="url(#mask0_3236_12642)">
<path d="M-50.5637 103.945L45.983 -96.705L246.632 -0.158242L150.086 200.491L-50.5637 103.945Z" fill="#0E0E0E"/>
<path d="M246.722 -0.344374L46.0725 -96.8911L150.086 200.491L246.722 -0.344374Z" fill="#D7FC36"/>
<path d="M198.449 99.9804C185.249 93.6293 170.928 89.9401 156.303 89.1236C141.678 88.3071 127.036 90.3792 113.212 95.2216C99.3874 100.064 86.6523 107.582 75.7335 117.346C64.8147 127.11 55.926 138.929 49.5749 152.128L150.086 200.491L198.449 99.9804Z" fill="#F2F3ED"/>
<path d="M94.4374 41.6244C76.2355 48.0002 56.9561 50.7285 37.6998 49.6534C18.4435 48.5783 -0.412398 43.721 -17.7914 35.3587L45.8864 -96.9806L94.4374 41.6244Z" fill="#5835FE"/>
<path d="M178.226 -33.3028C161.337 1.79575 131.198 28.7479 94.4374 41.6244L45.8864 -96.9806L178.226 -33.3028Z" fill="#0E0E0E"/>
</g>
</svg>
